<svg xmlns="http://www.w3.org/2000/svg" version="1.1" xmlns:xlink="http://www.w3.org/1999/xlink" xmlns:svgjs="http://svgjs.com/svgjs" width="1440" height="700" preserveAspectRatio="none" viewBox="0 0 1440 700"><g mask="url(&quot;#SvgjsMask1012&quot;)" fill="none"><rect width="1440" height="700" x="0" y="0" fill="#0e2a47"></rect><path d="M215.934,284.475C270.077,282.369,310.634,240.977,337.667,194.018C364.625,147.189,380.834,90.916,354.53,43.717C327.67,-4.479,271.105,-25.106,215.934,-24.417C162.073,-23.744,111.243,1.112,83.209,47.107C53.978,95.066,49.197,155.153,76.608,204.175C104.647,254.32,158.525,286.708,215.934,284.475" fill="rgba(28, 83, 142, 0.4)" class="triangle-float1"></path><path d="M224.48 364.8 a218.48 218.48 0 1 0 436.96 0 a218.48 218.48 0 1 0 -436.96 0z" fill="rgba(28, 83, 142, 0.4)" class="triangle-float3"></path><path d="M266.63,896.131C341.792,901.798,415.621,864.93,454.667,800.457C495.084,733.722,501.546,646.015,456.824,582.085C416.528,524.482,336.82,527.763,266.63,531.657C205.406,535.053,141.067,548.602,109.78,601.337C77.975,654.945,92.753,720.348,122.032,775.377C153.646,834.795,199.515,891.071,266.63,896.131" fill="rgba(28, 83, 142, 0.4)" class="triangle-float1"></path><path d="M649.614,460.056C682.68,458.704,715.876,448.539,733.341,420.429C751.734,390.824,751.509,353.492,734.836,322.886C717.394,290.868,686.036,268.412,649.614,266.736C610.091,264.918,569.969,280.427,549.636,314.367C528.8,349.147,530.182,394.368,553.123,427.798C573.69,457.768,613.296,461.541,649.614,460.056" fill="rgba(28, 83, 142, 0.4)" class="triangle-float1"></path><path d="M9.449,213.962C34.953,213.125,62.345,209.781,76.102,188.289C90.76,165.389,87.628,136.057,74.586,112.2C60.937,87.231,37.905,66.296,9.449,66.363C-18.916,66.43,-40.743,88.076,-55.159,112.505C-69.876,137.443,-80.793,168.503,-65.239,192.928C-50.348,216.311,-18.258,214.871,9.449,213.962" fill="rgba(28, 83, 142, 0.4)" class="triangle-float3"></path><path d="M651.62 541 a172.98 172.98 0 1 0 345.96 0 a172.98 172.98 0 1 0 -345.96 0z" fill="rgba(28, 83, 142, 0.4)" class="triangle-float2"></path><path d="M1329.455,444.963C1371.485,444.164,1413.807,426.796,1433.242,389.52C1451.581,354.347,1436.248,313.73,1415.509,279.916C1395.955,248.035,1366.854,220.502,1329.455,220.303C1291.769,220.102,1262.108,247.244,1241.8,278.991C1219.288,314.184,1199.09,356.66,1218.6,393.602C1238.984,432.199,1285.814,445.793,1329.455,444.963" fill="rgba(28, 83, 142, 0.4)" class="triangle-float3"></path></g><defs><mask id="SvgjsMask1012"><rect width="1440" height="700" fill="#ffffff"></rect></mask><style>
            @keyframes float1 {
                0%{transform: translate(0, 0)}
                50%{transform: translate(-10px, 0)}
                100%{transform: translate(0, 0)}
            }

            .triangle-float1 {
                animation: float1 5s infinite;
            }

            @keyframes float2 {
                0%{transform: translate(0, 0)}
                50%{transform: translate(-5px, -5px)}
                100%{transform: translate(0, 0)}
            }

            .triangle-float2 {
                animation: float2 4s infinite;
            }

            @keyframes float3 {
                0%{transform: translate(0, 0)}
                50%{transform: translate(0, -10px)}
                100%{transform: translate(0, 0)}
            }

            .triangle-float3 {
                animation: float3 6s infinite;
            }
        </style></defs></svg>